<svg xmlns="http://www.w3.org/2000/svg" xmlns:xlink="http://www.w3.org/1999/xlink" width="320" zoomAndPan="magnify" viewBox="0 0 240 95.999999" height="128" preserveAspectRatio="xMidYMid meet" version="1.0"><defs><g/><clipPath id="c2321a6f85"><path d="M 57 7.246094 L 92.59375 7.246094 L 92.59375 59.394531 L 57 59.394531 Z M 57 7.246094 " clip-rule="nonzero"/></clipPath><clipPath id="b705aa433f"><path d="M 62 7.246094 L 87 7.246094 L 87 59.394531 L 62 59.394531 Z M 62 7.246094 " clip-rule="nonzero"/></clipPath></defs><g fill="#000000" fill-opacity="1"><g transform="translate(45.26256, 80.050483)"><g><path d="M 13.234375 -2.96875 C 14.296875 -2.96875 15.210938 -3.085938 15.984375 -3.328125 C 16.753906 -3.578125 17.382812 -3.921875 17.875 -4.359375 C 18.375 -4.804688 18.738281 -5.332031 18.96875 -5.9375 C 19.195312 -6.550781 19.3125 -7.226562 19.3125 -7.96875 C 19.3125 -9.394531 18.800781 -10.519531 17.78125 -11.34375 C 16.769531 -12.175781 15.253906 -12.59375 13.234375 -12.59375 L 7.25 -12.59375 L 7.25 -2.96875 Z M 7.25 -24.6875 L 7.25 -15.25 L 12.1875 -15.25 C 13.238281 -15.25 14.148438 -15.363281 14.921875 -15.59375 C 15.703125 -15.832031 16.347656 -16.15625 16.859375 -16.5625 C 17.367188 -16.96875 17.742188 -17.460938 17.984375 -18.046875 C 18.234375 -18.640625 18.359375 -19.28125 18.359375 -19.96875 C 18.359375 -21.601562 17.867188 -22.796875 16.890625 -23.546875 C 15.910156 -24.304688 14.394531 -24.6875 12.34375 -24.6875 Z M 12.34375 -27.625 C 14.039062 -27.625 15.5 -27.457031 16.71875 -27.125 C 17.945312 -26.789062 18.957031 -26.316406 19.75 -25.703125 C 20.539062 -25.085938 21.125 -24.332031 21.5 -23.4375 C 21.875 -22.539062 22.0625 -21.535156 22.0625 -20.421875 C 22.0625 -19.734375 21.953125 -19.078125 21.734375 -18.453125 C 21.523438 -17.835938 21.207031 -17.257812 20.78125 -16.71875 C 20.363281 -16.175781 19.828125 -15.6875 19.171875 -15.25 C 18.523438 -14.820312 17.765625 -14.472656 16.890625 -14.203125 C 18.921875 -13.816406 20.445312 -13.09375 21.46875 -12.03125 C 22.488281 -10.976562 23 -9.585938 23 -7.859375 C 23 -6.691406 22.78125 -5.625 22.34375 -4.65625 C 21.914062 -3.695312 21.285156 -2.867188 20.453125 -2.171875 C 19.628906 -1.484375 18.613281 -0.945312 17.40625 -0.5625 C 16.195312 -0.1875 14.820312 0 13.28125 0 L 3.53125 0 L 3.53125 -27.625 Z M 12.34375 -27.625 "/></g></g></g><g fill="#000000" fill-opacity="1"><g transform="translate(70.190586, 80.050483)"><g><path d="M 6.34375 -19.53125 L 6.34375 0 L 2.90625 0 L 2.90625 -19.53125 Z M 7.078125 -25.65625 C 7.078125 -25.320312 7.007812 -25.007812 6.875 -24.71875 C 6.738281 -24.4375 6.554688 -24.179688 6.328125 -23.953125 C 6.109375 -23.734375 5.847656 -23.554688 5.546875 -23.421875 C 5.242188 -23.296875 4.925781 -23.234375 4.59375 -23.234375 C 4.257812 -23.234375 3.945312 -23.296875 3.65625 -23.421875 C 3.363281 -23.554688 3.109375 -23.734375 2.890625 -23.953125 C 2.671875 -24.179688 2.492188 -24.4375 2.359375 -24.71875 C 2.234375 -25.007812 2.171875 -25.320312 2.171875 -25.65625 C 2.171875 -26 2.234375 -26.320312 2.359375 -26.625 C 2.492188 -26.925781 2.671875 -27.1875 2.890625 -27.40625 C 3.109375 -27.632812 3.363281 -27.8125 3.65625 -27.9375 C 3.945312 -28.0625 4.257812 -28.125 4.59375 -28.125 C 4.925781 -28.125 5.242188 -28.0625 5.546875 -27.9375 C 5.847656 -27.8125 6.109375 -27.632812 6.328125 -27.40625 C 6.554688 -27.1875 6.738281 -26.925781 6.875 -26.625 C 7.007812 -26.320312 7.078125 -26 7.078125 -25.65625 Z M 7.078125 -25.65625 "/></g></g></g><g fill="#000000" fill-opacity="1"><g transform="translate(79.44461, 80.050483)"><g><path d="M 16.203125 -18.0625 C 16.203125 -17.820312 16.160156 -17.582031 16.078125 -17.34375 C 15.992188 -17.113281 15.878906 -16.914062 15.734375 -16.75 L 5.140625 -2.6875 L 15.828125 -2.6875 L 15.828125 0 L 1.125 0 L 1.125 -1.421875 C 1.125 -1.585938 1.160156 -1.785156 1.234375 -2.015625 C 1.304688 -2.242188 1.421875 -2.457031 1.578125 -2.65625 L 12.21875 -16.828125 L 1.71875 -16.828125 L 1.71875 -19.53125 L 16.203125 -19.53125 Z M 16.203125 -18.0625 "/></g></g></g><g fill="#52c8fa" fill-opacity="1"><g transform="translate(96.879418, 80.050483)"><g><path d="M 13.53125 -4.046875 C 14.5 -4.046875 15.3125 -4.160156 15.96875 -4.390625 C 16.625 -4.628906 17.144531 -4.941406 17.53125 -5.328125 C 17.925781 -5.710938 18.207031 -6.160156 18.375 -6.671875 C 18.550781 -7.179688 18.640625 -7.726562 18.640625 -8.3125 C 18.640625 -8.914062 18.539062 -9.457031 18.34375 -9.9375 C 18.15625 -10.414062 17.851562 -10.828125 17.4375 -11.171875 C 17.03125 -11.515625 16.503906 -11.773438 15.859375 -11.953125 C 15.210938 -12.128906 14.429688 -12.21875 13.515625 -12.21875 L 8.296875 -12.21875 L 8.296875 -4.046875 Z M 8.296875 -23.875 L 8.296875 -15.8125 L 12.421875 -15.8125 C 14.191406 -15.8125 15.53125 -16.128906 16.4375 -16.765625 C 17.34375 -17.410156 17.796875 -18.4375 17.796875 -19.84375 C 17.796875 -21.289062 17.382812 -22.320312 16.5625 -22.9375 C 15.738281 -23.5625 14.453125 -23.875 12.703125 -23.875 Z M 12.703125 -27.875 C 14.523438 -27.875 16.085938 -27.703125 17.390625 -27.359375 C 18.691406 -27.015625 19.753906 -26.519531 20.578125 -25.875 C 21.410156 -25.226562 22.019531 -24.445312 22.40625 -23.53125 C 22.789062 -22.625 22.984375 -21.597656 22.984375 -20.453125 C 22.984375 -19.796875 22.882812 -19.171875 22.6875 -18.578125 C 22.5 -17.984375 22.203125 -17.425781 21.796875 -16.90625 C 21.390625 -16.382812 20.875 -15.910156 20.25 -15.484375 C 19.625 -15.054688 18.882812 -14.695312 18.03125 -14.40625 C 21.863281 -13.539062 23.78125 -11.46875 23.78125 -8.1875 C 23.78125 -7.007812 23.550781 -5.914062 23.09375 -4.90625 C 22.644531 -3.90625 21.988281 -3.039062 21.125 -2.3125 C 20.269531 -1.59375 19.210938 -1.023438 17.953125 -0.609375 C 16.691406 -0.203125 15.25 0 13.625 0 L 3.109375 0 L 3.109375 -27.875 Z M 12.703125 -27.875 "/></g></g></g><g fill="#52c8fa" fill-opacity="1"><g transform="translate(122.270148, 80.050483)"><g><path d="M 15.09375 -12.171875 C 15.09375 -12.785156 15.003906 -13.363281 14.828125 -13.90625 C 14.660156 -14.457031 14.398438 -14.9375 14.046875 -15.34375 C 13.703125 -15.757812 13.265625 -16.082031 12.734375 -16.3125 C 12.203125 -16.550781 11.582031 -16.671875 10.875 -16.671875 C 9.5 -16.671875 8.414062 -16.28125 7.625 -15.5 C 6.832031 -14.71875 6.328125 -13.609375 6.109375 -12.171875 Z M 6.015625 -9.296875 C 6.085938 -8.273438 6.265625 -7.394531 6.546875 -6.65625 C 6.835938 -5.914062 7.210938 -5.304688 7.671875 -4.828125 C 8.140625 -4.347656 8.691406 -3.988281 9.328125 -3.75 C 9.960938 -3.507812 10.664062 -3.390625 11.4375 -3.390625 C 12.207031 -3.390625 12.867188 -3.476562 13.421875 -3.65625 C 13.984375 -3.84375 14.472656 -4.046875 14.890625 -4.265625 C 15.304688 -4.484375 15.671875 -4.679688 15.984375 -4.859375 C 16.304688 -5.035156 16.613281 -5.125 16.90625 -5.125 C 17.300781 -5.125 17.597656 -4.976562 17.796875 -4.6875 L 19.171875 -2.953125 C 18.640625 -2.335938 18.046875 -1.816406 17.390625 -1.390625 C 16.734375 -0.972656 16.046875 -0.640625 15.328125 -0.390625 C 14.617188 -0.140625 13.894531 0.0351562 13.15625 0.140625 C 12.414062 0.242188 11.703125 0.296875 11.015625 0.296875 C 9.640625 0.296875 8.359375 0.0664062 7.171875 -0.390625 C 5.992188 -0.847656 4.96875 -1.523438 4.09375 -2.421875 C 3.21875 -3.316406 2.523438 -4.421875 2.015625 -5.734375 C 1.515625 -7.054688 1.265625 -8.582031 1.265625 -10.3125 C 1.265625 -11.664062 1.484375 -12.9375 1.921875 -14.125 C 2.359375 -15.3125 2.984375 -16.34375 3.796875 -17.21875 C 4.617188 -18.101562 5.617188 -18.800781 6.796875 -19.3125 C 7.972656 -19.832031 9.300781 -20.09375 10.78125 -20.09375 C 12.019531 -20.09375 13.164062 -19.890625 14.21875 -19.484375 C 15.28125 -19.085938 16.1875 -18.503906 16.9375 -17.734375 C 17.695312 -16.972656 18.289062 -16.035156 18.71875 -14.921875 C 19.15625 -13.816406 19.375 -12.550781 19.375 -11.125 C 19.375 -10.40625 19.296875 -9.921875 19.140625 -9.671875 C 18.992188 -9.421875 18.703125 -9.296875 18.265625 -9.296875 Z M 6.015625 -9.296875 "/></g></g></g><g fill="#52c8fa" fill-opacity="1"><g transform="translate(142.860347, 80.050483)"><g><path d="M 12.796875 -8.4375 C 11.421875 -8.375 10.265625 -8.253906 9.328125 -8.078125 C 8.390625 -7.910156 7.640625 -7.691406 7.078125 -7.421875 C 6.515625 -7.148438 6.109375 -6.832031 5.859375 -6.46875 C 5.617188 -6.113281 5.5 -5.722656 5.5 -5.296875 C 5.5 -4.460938 5.742188 -3.863281 6.234375 -3.5 C 6.734375 -3.144531 7.378906 -2.96875 8.171875 -2.96875 C 9.148438 -2.96875 9.992188 -3.144531 10.703125 -3.5 C 11.421875 -3.851562 12.117188 -4.390625 12.796875 -5.109375 Z M 1.890625 -17.03125 C 4.160156 -19.113281 6.898438 -20.15625 10.109375 -20.15625 C 11.265625 -20.15625 12.296875 -19.960938 13.203125 -19.578125 C 14.117188 -19.203125 14.890625 -18.675781 15.515625 -18 C 16.148438 -17.320312 16.628906 -16.515625 16.953125 -15.578125 C 17.285156 -14.640625 17.453125 -13.613281 17.453125 -12.5 L 17.453125 0 L 15.296875 0 C 14.835938 0 14.484375 -0.0664062 14.234375 -0.203125 C 13.992188 -0.335938 13.804688 -0.609375 13.671875 -1.015625 L 13.25 -2.453125 C 12.75 -2.003906 12.257812 -1.609375 11.78125 -1.265625 C 11.300781 -0.921875 10.804688 -0.632812 10.296875 -0.40625 C 9.785156 -0.175781 9.234375 0 8.640625 0.125 C 8.054688 0.25 7.410156 0.3125 6.703125 0.3125 C 5.867188 0.3125 5.097656 0.203125 4.390625 -0.015625 C 3.679688 -0.242188 3.070312 -0.582031 2.5625 -1.03125 C 2.050781 -1.488281 1.648438 -2.050781 1.359375 -2.71875 C 1.078125 -3.382812 0.9375 -4.160156 0.9375 -5.046875 C 0.9375 -5.546875 1.019531 -6.039062 1.1875 -6.53125 C 1.363281 -7.03125 1.640625 -7.503906 2.015625 -7.953125 C 2.390625 -8.410156 2.878906 -8.835938 3.484375 -9.234375 C 4.085938 -9.628906 4.828125 -9.972656 5.703125 -10.265625 C 6.585938 -10.566406 7.613281 -10.8125 8.78125 -11 C 9.957031 -11.1875 11.296875 -11.300781 12.796875 -11.34375 L 12.796875 -12.5 C 12.796875 -13.820312 12.515625 -14.800781 11.953125 -15.4375 C 11.390625 -16.070312 10.570312 -16.390625 9.5 -16.390625 C 8.726562 -16.390625 8.085938 -16.296875 7.578125 -16.109375 C 7.078125 -15.929688 6.632812 -15.726562 6.25 -15.5 C 5.863281 -15.28125 5.507812 -15.082031 5.1875 -14.90625 C 4.875 -14.726562 4.523438 -14.640625 4.140625 -14.640625 C 3.804688 -14.640625 3.523438 -14.722656 3.296875 -14.890625 C 3.066406 -15.066406 2.878906 -15.269531 2.734375 -15.5 Z M 1.890625 -17.03125 "/></g></g></g><g fill="#52c8fa" fill-opacity="1"><g transform="translate(162.428749, 80.050483)"><g><path d="M 2.359375 0 L 2.359375 -19.78125 L 5.265625 -19.78125 C 5.878906 -19.78125 6.285156 -19.492188 6.484375 -18.921875 L 6.78125 -17.453125 C 7.132812 -17.835938 7.5 -18.1875 7.875 -18.5 C 8.25 -18.820312 8.648438 -19.097656 9.078125 -19.328125 C 9.515625 -19.566406 9.976562 -19.753906 10.46875 -19.890625 C 10.96875 -20.023438 11.515625 -20.09375 12.109375 -20.09375 C 13.359375 -20.09375 14.382812 -19.753906 15.1875 -19.078125 C 15.988281 -18.398438 16.585938 -17.503906 16.984375 -16.390625 C 17.296875 -17.046875 17.679688 -17.609375 18.140625 -18.078125 C 18.609375 -18.546875 19.117188 -18.925781 19.671875 -19.21875 C 20.222656 -19.519531 20.804688 -19.738281 21.421875 -19.875 C 22.046875 -20.019531 22.675781 -20.09375 23.3125 -20.09375 C 24.40625 -20.09375 25.375 -19.925781 26.21875 -19.59375 C 27.070312 -19.257812 27.785156 -18.769531 28.359375 -18.125 C 28.941406 -17.476562 29.382812 -16.691406 29.6875 -15.765625 C 29.988281 -14.847656 30.140625 -13.789062 30.140625 -12.59375 L 30.140625 0 L 25.375 0 L 25.375 -12.59375 C 25.375 -13.851562 25.097656 -14.800781 24.546875 -15.4375 C 23.992188 -16.070312 23.179688 -16.390625 22.109375 -16.390625 C 21.617188 -16.390625 21.164062 -16.304688 20.75 -16.140625 C 20.332031 -15.972656 19.96875 -15.726562 19.65625 -15.40625 C 19.34375 -15.09375 19.09375 -14.695312 18.90625 -14.21875 C 18.726562 -13.75 18.640625 -13.207031 18.640625 -12.59375 L 18.640625 0 L 13.859375 0 L 13.859375 -12.59375 C 13.859375 -13.914062 13.59375 -14.878906 13.0625 -15.484375 C 12.53125 -16.085938 11.75 -16.390625 10.71875 -16.390625 C 10.019531 -16.390625 9.375 -16.21875 8.78125 -15.875 C 8.1875 -15.53125 7.628906 -15.066406 7.109375 -14.484375 L 7.109375 0 Z M 2.359375 0 "/></g></g></g><g clip-path="url(#c2321a6f85)"><path fill="#0b3d91" d="M 57.011719 7.222656 L 92.59375 7.167969 L 76.375 59.316406 L 73.375 59.316406 Z M 57.011719 7.222656 " fill-opacity="1" fill-rule="nonzero"/></g><g clip-path="url(#b705aa433f)"><path fill="#52c8fa" d="M 73.375 59.316406 C 73.375 59.359375 74.050781 59.386719 74.875 59.386719 C 75.707031 59.386719 76.375 59.359375 76.375 59.316406 L 86.851562 7.222656 L 62.214844 7.21875 Z M 73.375 59.316406 " fill-opacity="1" fill-rule="nonzero"/></g></svg>